<svg width="205" height="57" viewBox="0 0 205 57" fill="none" xmlns="http://www.w3.org/2000/svg">
<path fill-rule="evenodd" clip-rule="evenodd" d="M169.528 37.4078C173.568 37.4078 176.765 32.7707 176.765 27.0649V13.2744H180.01V27.0649C180.01 34.6497 175.337 40.7692 169.593 40.7692C163.849 40.7692 159.176 34.6497 159.176 27.0649V13.2744H162.421V27.0649C162.291 32.8569 165.488 37.494 169.512 37.494L169.528 37.4078ZM91.3693 40.9755H88.1241V38.5104C86.0313 40.0667 83.5393 40.9031 80.9848 40.9065C74.9816 40.9492 69.734 36.613 68.2955 30.4209C66.8569 24.2289 69.6027 17.7966 74.9352 14.8669C80.2677 11.9372 86.7955 13.2744 90.7203 18.1005L88.3351 20.3587C85.351 16.8143 80.4767 15.8883 76.5213 18.1143C72.566 20.3404 70.5491 25.1448 71.633 29.7586C72.7169 34.3724 76.6223 37.6064 81.0984 37.5968C83.8271 37.6028 86.4224 36.3438 88.2053 34.1492H79.4433V30.7016H91.4018L91.3693 40.9755ZM36.4756 13.4968H33.2305V40.9399H46.2111V37.4923H36.4756V13.4968ZM56.3234 34.1828C61.7001 34.1828 66.0589 29.5521 66.0589 23.8399C66.0589 18.1277 61.7001 13.4971 56.3234 13.4971C53.7414 13.4971 51.2651 14.5868 49.4393 16.5264C47.6136 18.4661 46.5879 21.0968 46.5879 23.8399C46.5879 29.5521 50.9466 34.1828 56.3234 34.1828ZM56.3224 30.7368C59.9069 30.7368 62.8127 27.6497 62.8127 23.8415C62.8127 20.0334 59.9069 16.9463 56.3224 16.9463C52.7378 16.9463 49.832 20.0334 49.832 23.8415C49.8499 27.6362 52.7505 30.7023 56.3224 30.7023V30.7368ZM62.8127 40.9779V37.5303H49.832V40.9779H62.8127ZM113.045 23.9089C113.045 18.1967 108.687 13.5661 103.31 13.5661L103.342 13.4971C100.743 13.4879 98.2489 14.583 96.4143 16.5386C94.5796 18.4942 93.5571 21.1479 93.5744 23.9089C93.5744 29.6212 97.9332 34.2518 103.31 34.2518C108.687 34.2518 113.045 29.6212 113.045 23.9089ZM103.309 30.8051C106.893 30.8051 109.799 27.718 109.799 23.9099C109.799 20.1018 106.893 17.0146 103.309 17.0146C99.7242 17.0146 96.8184 20.1018 96.8184 23.9099C96.8717 27.691 99.7817 30.721 103.341 30.7017L103.309 30.8051ZM109.799 41.0453V37.5977H96.8184V41.0453H109.799ZM116.502 13.4968H119.747V40.9054H116.502V13.4968ZM127.485 13.499H124.24V40.9593H127.485V34.0641H127.988C131.696 34.4915 135.309 32.6304 137.289 29.2722C139.269 25.914 139.269 21.6491 137.289 18.2909C135.309 14.9327 131.696 13.0716 127.988 13.499C127.821 13.4802 127.652 13.4802 127.485 13.499ZM127.487 16.9458V17.0262L127.47 17.032L127.487 16.9458ZM127.487 17.0262C127.65 16.9688 127.819 16.9303 127.99 16.9113C130.492 16.5573 132.961 17.7771 134.319 20.0386C135.676 22.3 135.676 25.1925 134.319 27.4539C132.961 29.7153 130.492 30.9352 127.99 30.5811H127.487V17.0262ZM150.813 15.5242L150.866 15.4791L150.85 15.5653L150.813 15.5242ZM146.291 13.5829C147.988 13.5296 149.628 14.2343 150.813 15.5242L148.465 17.4959C147.619 16.557 146.338 16.2237 145.179 16.6414C144.021 17.059 143.195 18.1519 143.062 19.4438V19.7197C143.062 21.2366 144.052 22.2537 145.983 22.3916C153.414 22.8742 156.821 26.5804 156.821 31.476V31.7863C156.43 35.7432 153.902 39.0941 150.352 40.3623C146.802 41.6305 142.882 40.5831 140.32 37.6818L142.802 35.6477C143.972 36.9793 145.633 37.6978 147.345 37.6128C150.593 37.7946 153.398 35.2252 153.706 31.7863V31.545C153.706 26.9424 149.455 26.0978 145.772 25.7185C142.364 25.3738 139.914 23.1156 139.914 19.8576V19.7197C140.164 16.1971 142.967 13.4995 146.291 13.5829ZM201.668 40.8539H204.913L204.881 13.4971L194.172 28.477L183.463 13.4971V40.9057H186.708V23.7882L194.188 34.1311L201.668 23.7882V40.8539Z" fill="white"/>
<path fill-rule="evenodd" clip-rule="evenodd" d="M17.6537 9.37753C17.6537 4.19846 13.7018 0 8.82684 0C3.95191 0 0 4.19846 0 9.37753V37.7342L7.26916 43.2676V56.7478H10.3845V43.2676L17.6537 37.7342V9.37753ZM14.5386 25.2377L10.3848 29.6507V25.5135L14.5386 21.1006V25.2377ZM7.33545 25.5135L3.18164 21.1006V25.2377L7.33545 29.6507V25.5135ZM14.5382 16.4118L8.82672 22.4796L3.11523 16.2739V12.1367L8.82672 18.2045L14.5382 12.1367V16.4118ZM14.3421 7.80833C13.6639 5.16188 11.4071 3.32132 8.82537 3.30919V3.24023C6.22516 3.26077 3.96226 5.13454 3.30859 7.80833L8.82537 13.652L14.3421 7.80833ZM3.11523 36.0612V29.8555L7.26904 34.2684V39.1985L3.11523 36.0612ZM10.3848 34.2684V39.2158L14.5386 36.0439V29.8555L10.3848 34.2684Z" fill="white"/>
</svg>
