<svg width="228" height="63" viewBox="0 0 228 63" fill="none" xmlns="http://www.w3.org/2000/svg">
<path fill-rule="evenodd" clip-rule="evenodd" d="M188.116 41.5098C192.599 41.5098 196.146 36.3643 196.146 30.0329V14.7303H199.747V30.0329C199.747 38.4493 194.561 45.2398 188.188 45.2398C181.814 45.2398 176.628 38.4493 176.628 30.0329V14.7303H180.229V30.0329C180.085 36.4599 183.632 41.6054 188.098 41.6054L188.116 41.5098ZM101.385 45.4681H97.7845V42.7328C95.4622 44.4597 92.697 45.3878 89.8623 45.3916C83.2009 45.439 77.3779 40.6273 75.7817 33.7563C74.1854 26.8853 77.2322 19.7478 83.1494 16.4968C89.0666 13.2459 96.3101 14.7297 100.665 20.085L98.0185 22.5908C94.7073 18.6578 89.2985 17.6302 84.9095 20.1003C80.5204 22.5704 78.2823 27.9017 79.4851 33.0213C80.6879 38.141 85.0215 41.7296 89.9883 41.719C93.0162 41.7256 95.8961 40.3285 97.8745 37.8933H88.1518V34.0677H101.421L101.385 45.4681ZM40.475 14.9776H36.874V45.4297H51.2779V41.604H40.475V14.9776ZM62.497 37.9314C68.4633 37.9314 73.3 32.793 73.3 26.4545C73.3 20.116 68.4633 14.9776 62.497 14.9776C59.6319 14.9776 56.8842 16.1867 54.8582 18.3391C52.8323 20.4914 51.6941 23.4106 51.6941 26.4545C51.6941 32.793 56.5307 37.9314 62.497 37.9314ZM62.4957 34.1082C66.4732 34.1082 69.6976 30.6826 69.6976 26.4569C69.6976 22.2312 66.4732 18.8056 62.4957 18.8056C58.5181 18.8056 55.2937 22.2312 55.2937 26.4569C55.3135 30.6677 58.5322 34.07 62.4957 34.07V34.1082ZM69.6976 41.6455H55.2937V45.4712H69.6976V41.6455ZM125.441 26.5311C125.441 20.1925 120.604 15.0542 114.638 15.0542L114.674 14.9776C111.79 14.9674 109.022 16.1825 106.986 18.3526C104.95 20.5226 103.816 23.4673 103.835 26.5311C103.835 32.8696 108.671 38.008 114.638 38.008C120.604 38.008 125.441 32.8696 125.441 26.5311ZM114.636 34.1834C118.614 34.1834 121.838 30.7578 121.838 26.5321C121.838 22.3064 118.614 18.8808 114.636 18.8808C110.659 18.8808 107.434 22.3064 107.434 26.5321C107.493 30.7278 110.722 34.09 114.672 34.0686L114.636 34.1834ZM121.838 45.5463V41.7207H107.434V45.5463H121.838ZM129.276 14.9776H132.877V45.3914H129.276V14.9776ZM141.464 14.9793H137.863V45.4505H141.464V37.7992H142.022C146.137 38.2735 150.145 36.2084 152.342 32.482C154.539 28.7555 154.539 24.023 152.342 20.2966C150.145 16.5701 146.137 14.505 142.022 14.9793C141.836 14.9584 141.649 14.9584 141.464 14.9793ZM141.465 18.8044V18.8936L141.447 18.9L141.465 18.8044ZM141.465 18.8936C141.646 18.8299 141.833 18.7871 142.023 18.7661C144.8 18.3733 147.54 19.7269 149.046 22.2362C150.552 24.7456 150.552 27.9553 149.046 30.4647C147.54 32.974 144.8 34.3276 142.023 33.9348H141.465V18.8936ZM167.348 17.2269L167.408 17.1769L167.39 17.2726L167.348 17.2269ZM162.331 15.0728C164.214 15.0137 166.034 15.7957 167.348 17.2269L164.743 19.4149C163.805 18.373 162.383 18.0032 161.097 18.4667C159.812 18.9301 158.896 20.1428 158.748 21.5764V21.8825C158.748 23.5657 159.846 24.6943 161.989 24.8473C170.235 25.3829 174.016 29.4955 174.016 34.9279V35.2722C173.581 39.663 170.776 43.3812 166.837 44.7885C162.898 46.1957 158.549 45.0336 155.705 41.8141L158.46 39.5569C159.757 41.0345 161.601 41.8318 163.501 41.7375C167.104 41.9393 170.217 39.0881 170.559 35.2722V35.0044C170.559 29.8972 165.842 28.9599 161.755 28.5391C157.973 28.1565 155.255 25.6507 155.255 22.0355V21.8825C155.532 17.9737 158.642 14.9803 162.331 15.0728ZM223.782 45.334H227.383L227.347 14.9776L215.464 31.6L203.58 14.9776V45.3914H207.181V26.3971L215.482 37.874L223.782 26.3971V45.334Z" fill="#6B6B6B"/>
<path fill-rule="evenodd" clip-rule="evenodd" d="M19.5893 10.4057C19.5893 4.65881 15.2041 0 9.79467 0C4.38522 0 0 4.65881 0 10.4057V41.8717L8.0662 48.0118V62.9701H11.5231V48.0118L19.5893 41.8717V10.4057ZM16.1328 28.0051L11.5235 32.9019V28.3112L16.1328 23.4143V28.0051ZM8.13851 28.3112L3.52926 23.4143V28.0051L8.13851 32.9019V28.3112ZM16.1322 18.211L9.79451 24.9441L3.45678 18.058V13.4672L9.79451 20.2003L16.1322 13.4672V18.211ZM15.9154 8.66419C15.1628 5.72757 12.6584 3.68519 9.79368 3.67173V3.59521C6.90837 3.618 4.39736 5.69722 3.67201 8.66419L9.79368 15.1487L15.9154 8.66419ZM3.45678 40.0149V33.1288L8.06604 38.0256V43.4962L3.45678 40.0149ZM11.5235 38.0256V43.5154L16.1328 39.9958V33.1288L11.5235 38.0256Z" fill="#FFB703"/>
</svg>
